<?xml version="1.0" encoding="UTF-8"?>
<svg width="64" height="64" version="1.1" xmlns="http://www.w3.org/2000/svg" xmlns:cc="http://creativecommons.org/ns#" xmlns:dc="http://purl.org/dc/elements/1.1/" xmlns:rdf="http://www.w3.org/1999/02/22-rdf-syntax-ns#" xmlns:xlink="http://www.w3.org/1999/xlink">
    <defs>
        <style type="text/css" id="current-color-scheme">
            .ColorScheme-Text {
            color:#039bfc;
            }
        </style>

        <filter id="glow" x="-50%" y="-50%" width="200%" height="200%">
            <feComponentTransfer in="SourceAlpha" result="adjustedAlpha">
                <feFuncA type="table" tableValues="0 0.5 1"/>
            </feComponentTransfer>
            <feGaussianBlur in="adjustedAlpha" stdDeviation="2" result="blur"/>
            <feFlood flood-color="#039bfc" result="color"/>
            <feComposite in="color" in2="blur" operator="in" result="softGlowColored"/>
            <feMerge>
                <feMergeNode in="softGlowColored"/>
                <feMergeNode in="SourceGraphic"/>
            </feMerge>
        </filter>

        <linearGradient id="b" x1="399.57" x2="399.57" y1="545.8" y2="517.8" gradientTransform="matrix(2.1429 0 0 2.1429 -723.44 -1107.5)" gradientUnits="userSpaceOnUse">
            <stop stop-color="#3889e9" offset="0"/>
            <stop stop-color="#5ea5fb" offset="1"/>
        </linearGradient>
        <linearGradient id="b-3" x1="399.57" x2="399.57" y1="545.8" y2="517.8" gradientTransform="matrix(2.1429 0 0 2.1429 -753.02 -1107.5)" gradientUnits="userSpaceOnUse">
            <stop stop-color="#3889e9" offset="0"/>
            <stop stop-color="#5ea5fb" offset="1"/>
        </linearGradient>
        <linearGradient id="linearGradient1299" x1="5" x2="195" y1="174.76" y2="174.76" gradientTransform="matrix(.32632 0 0 .095367 -.63187 42.834)" gradientUnits="userSpaceOnUse">
            <stop stop-color="#039bfc" stop-opacity="0" offset="0"/>
            <stop stop-color="#039bfc" offset=".225"/>
            <stop stop-color="#039bfc" offset=".5"/>
            <stop stop-color="#039bfc" offset=".775"/>
            <stop stop-color="#039bfc" stop-opacity="0" offset="1"/>
        </linearGradient>
    </defs>

    <circle cx="134.94" cy="32.044" r="0" fill="url(#b)" stroke-width="1.5715"/>
    <circle cx="105.36" cy="32.044" r="0" fill="url(#b-3)" stroke-width="1.5715"/>
    <rect x=".99971" y="59" width="62.001" height="1" ry="0" fill="url(#linearGradient1299)" stroke-width="3.7796" style="mix-blend-mode:normal;paint-order:stroke fill markers" filter="url(#glow)"/>
    <g stroke-linecap="round" stroke-linejoin="round">
        <rect x="9.5" y="9.5" width="45" height="45" ry="5" fill="none" stroke="#039bfc" style="paint-order:stroke fill markers" filter="url(#glow)"/>
    </g>
    <g transform="translate(8,8) scale(2)">
        <path style="fill:currentColor;fill-opacity:1;stroke:none" d="M14.3307 7.16929C13.5873 7.05887 12.806 7 12 7C7.02944 7 3 9.23858 3 12C3 13.4401 4.09589 14.738 5.84963 15.6504L8.21192 13.2881C8.07452 12.8839 8 12.4506 8 12C8 9.79086 9.79086 8 12 8C12.4506 8 12.8839 8.07452 13.2881 8.21192L14.3307 7.16929Z" class="ColorScheme-Text" filter="url(#glow)"/>
        <path style="fill:currentColor;fill-opacity:1;stroke:none" d="M11.2308 15.9261C11.4797 15.9746 11.7369 16 12 16C14.2091 16 16 14.2091 16 12C16 11.7369 15.9746 11.4797 15.9261 11.2308L18.5726 8.58427C20.0782 9.47809 21 10.6792 21 12C21 14.7614 16.9706 17 12 17C11.4016 17 10.8169 16.9676 10.2512 16.9057L11.2308" class="ColorScheme-Text" filter="url(#glow)"/>
        <path style="fill:currentColor;fill-opacity:1;stroke:none" d="M17.7929 5.20711C18.1834 4.81658 18.8166 4.81658 19.2071 5.20711C19.5976 5.59763 19.5976 6.2308 19.2071 6.62132L6.47919 19.3492C6.08866 19.7398 5.4555 19.7398 5.06497 19.3492C4.67445 18.9587 4.67445 18.3256 5.06497 17.935L17.7929 5.20711Z" class="ColorScheme-Text" filter="url(#glow)"/>
    </g>
</svg>
